<?xml version="1.0" encoding="utf-8"?>
<!-- Generator: Adobe Illustrator 16.0.0, SVG Export Plug-In . SVG Version: 6.00 Build 0)  -->
<!DOCTYPE svg PUBLIC "-//W3C//DTD SVG 1.1//EN" "http://www.w3.org/Graphics/SVG/1.1/DTD/svg11.dtd">
<svg version="1.1" id="Layer_1" xmlns="http://www.w3.org/2000/svg" xmlns:xlink="http://www.w3.org/1999/xlink" x="0px" y="0px"
	 width="592px" height="264px" viewBox="0 0 592 264" enable-background="new 0 0 592 264" xml:space="preserve">
<g>
	<defs>
		<rect id="SVGID_1_" x="-119" y="-168.28" width="841.89" height="595.28"/>
	</defs>
	<clipPath id="SVGID_2_">
		<use xlink:href="#SVGID_1_"  overflow="visible"/>
	</clipPath>
	<path clip-path="url(#SVGID_2_)" fill="#C49A6C" d="M170.91,123.421c0,0,7.336-1.987,13.297,8.559c0,0,2.37,5.121,0.383,8.714
		c0,0-2.692,5.657,0.793,9.936c0,0-0.793,2.141-5.073,1.303c0,0-0.61-0.3-1.145,0.193c0,0,1.526-1.496-1.758-3.712
		c0,0,0.612-2.826-2.523-3.896c0,0-0.23-2.368-2.677-3.517c0,0-2.826-6.803-1.755-11.082l0.305-4.893c0,0,6.342,1.224,8.102,15.515
		c0,0,1.222-13.297-8.027-16.278L170.91,123.421z"/>
	<path clip-path="url(#SVGID_2_)" fill="#C49A6C" d="M185.383,150.629c0,0,2.877-2.673,6.24,0c0,0,2.906,4.129-1.377,9.479
		l-2.064,1.911l-1.3-0.995l-0.993,1.759c0,0-0.228-1.759-1.377-2.753c0,0,0.996-3.742-0.38-6.801c0,0-1.912,0.458-2.828,3.44
		c0,0,0.993-3.967-2.139-4.545c0,0,0.202-0.242,0.737-0.281C179.902,151.844,184.14,152.975,185.383,150.629"/>
	<path clip-path="url(#SVGID_2_)" fill="#FFFFFF" d="M199.804,103.343c0,0,1.224-2.367,1.99-2.597c0,0,6.036,4.89,0.686,16.357
		l-0.686-2.828l-0.46-2.14l-1.53-2.295C199.804,109.84,202.099,106.86,199.804,103.343"/>
	<path clip-path="url(#SVGID_2_)" fill="none" stroke="#000000" stroke-width="0.2" stroke-miterlimit="10" d="M199.804,103.343
		c0,0,1.224-2.367,1.99-2.597c0,0,6.036,4.89,0.686,16.357l-0.686-2.828l-0.46-2.14l-1.53-2.295
		C199.804,109.84,202.099,106.86,199.804,103.343z"/>
	<path clip-path="url(#SVGID_2_)" fill="#FFFFFF" d="M199.804,103.343c0,0,2.241,3.387,0,6.497l-1.172,1.633l-0.866-2.549
		c0,0,1.019-2.504,0-4.971l1.121-1.5L199.804,103.343z"/>
	<path clip-path="url(#SVGID_2_)" fill="none" stroke="#000000" stroke-width="0.2" stroke-miterlimit="10" d="M199.804,103.343
		c0,0,2.241,3.387,0,6.497l-1.172,1.633l-0.866-2.549c0,0,1.019-2.504,0-4.971l1.121-1.5L199.804,103.343z"/>
	<path clip-path="url(#SVGID_2_)" fill="#FFFFFF" d="M195.93,102.046l1.836,1.907c0,0,0.969,2.324,0,4.971l-1.018,1.835
		l-2.497-1.835c0,0,0.917-2.76,0.406-4.971L195.93,102.046z"/>
	<path clip-path="url(#SVGID_2_)" fill="none" stroke="#000000" stroke-width="0.2" stroke-miterlimit="10" d="M195.93,102.046
		l1.836,1.907c0,0,0.969,2.324,0,4.971l-1.018,1.835l-2.497-1.835c0,0,0.917-2.76,0.406-4.971L195.93,102.046z"/>
	<path clip-path="url(#SVGID_2_)" fill="#FFFFFF" d="M191.958,101.13c0,0,2.189,1.318,2.698,2.823c0,0,0.459,1.76-0.406,4.971
		l-1.224,1.02l-2.038-1.631l-0.254-4.97L191.958,101.13z"/>
	<path clip-path="url(#SVGID_2_)" fill="none" stroke="#000000" stroke-width="0.2" stroke-miterlimit="10" d="M191.958,101.13
		c0,0,2.189,1.318,2.698,2.823c0,0,0.459,1.76-0.406,4.971l-1.224,1.02l-2.038-1.631l-0.254-4.97L191.958,101.13z"/>
	<polygon clip-path="url(#SVGID_2_)" fill="#FFFFFF" points="190.734,103.343 188.188,101.13 185.996,103.343 186.71,108.111 
		189.002,110.198 190.988,108.313 	"/>
	<polygon clip-path="url(#SVGID_2_)" fill="none" stroke="#000000" stroke-width="0.2" stroke-miterlimit="10" points="
		190.734,103.343 188.188,101.13 185.996,103.343 186.71,108.111 189.002,110.198 190.988,108.313 	"/>
	<path clip-path="url(#SVGID_2_)" fill="#FFFFFF" d="M185.995,103.343l-3.902-3.081l-4.753,5.275l2.643,4.661
		c0,0,2.292,3.243,2.752,7.328l0.152,1.184c0,0,3.973-3.211,3.823-10.599L185.995,103.343z"/>
	<path clip-path="url(#SVGID_2_)" fill="none" stroke="#000000" stroke-width="0.2" stroke-miterlimit="10" d="M185.995,103.343
		l-3.902-3.081l-4.753,5.275l2.643,4.661c0,0,2.292,3.243,2.752,7.328l0.152,1.184c0,0,3.973-3.211,3.823-10.599L185.995,103.343z"
		/>
	<polygon clip-path="url(#SVGID_2_)" fill="#FFFFFF" points="175.754,107.702 175.347,114.225 172.238,112.644 	"/>
	<polygon clip-path="url(#SVGID_2_)" fill="none" stroke="#000000" stroke-width="0.2" stroke-miterlimit="10" points="
		175.754,107.702 175.347,114.225 172.238,112.644 	"/>
	<path clip-path="url(#SVGID_2_)" fill-rule="evenodd" clip-rule="evenodd" fill="#FFFFFF" d="M178.495,82.835
		c0,0,1.937,3.159,4.686,1.327l1.257-1.853l2.821-4.162c0,0,3.058-5.095,3.465-2.243c0,0,1.141,5.309-5.531,6.284
		c-0.092,0.013-0.184,0.025-0.278,0.037c0,0-0.611,1.273,1.63,1.019c0,0,5.292-0.879,5.197-7.033c0,0,0-2.598-1.935-2.038
		c0,0-0.968-0.075-3.465,3.48l-2.905,5.03C183.437,82.684,181.959,85.586,178.495,82.835"/>
	<path clip-path="url(#SVGID_2_)" fill-rule="evenodd" clip-rule="evenodd" fill="#FFFFFF" d="M203.461,81.003
		c0,0-0.303-5.098-2.647-5.708c0,0-0.613,0.902,0.918,4.119c0,0,3.056,2.913,2.343,5.868c0,0-0.409-2.241-2.855-4.993
		c0,0-2.89-3.013-0.529-6.195C200.691,74.094,204.279,75.804,203.461,81.003"/>
	<path clip-path="url(#SVGID_2_)" fill-rule="evenodd" clip-rule="evenodd" d="M204.057,85.291c0.008-0.002,0.018-0.009,0.018-0.009
		l-0.273-0.887c-8.421,4.208-19.518-1.86-19.518-1.86l-0.435,0.644c1.152,0.559,2.255,1.032,3.315,1.437
		c-1.026-0.387-2.144-0.861-3.315-1.437c0,0,4.065,3.581,8.146,5.925l4.386-1.58l4.381,1.225l3.313-3.467
		C204.075,85.282,204.067,85.283,204.057,85.291 M192.96,86.244c0,0-0.919-0.131-2.416-0.533c8.004,2.119,12.753-0.038,13.442-0.384
		C203.366,85.642,199.391,87.468,192.96,86.244 M187.535,84.755c0.187,0.067,0.369,0.129,0.55,0.193
		C187.905,84.89,187.722,84.822,187.535,84.755 M188.839,85.203c0.073,0.026,0.146,0.047,0.218,0.069
		C188.985,85.25,188.912,85.229,188.839,85.203 M189.731,85.48c0.216,0.064,0.437,0.127,0.651,0.188
		C190.174,85.609,189.959,85.548,189.731,85.48 M204.048,85.298c-0.012,0.006-0.032,0.014-0.055,0.026
		C204.016,85.312,204.034,85.304,204.048,85.298"/>
	<path clip-path="url(#SVGID_2_)" fill-rule="evenodd" clip-rule="evenodd" fill="#FFFFFF" d="M178.927,78.174
		c0,0-8.254-0.381-11.235,1.987c0,0-5.809,1.071-6.955,14.139c0,0-1.223,5.885,1.222,19.338c0,0,1.148,3.592,1.223,12.536
		c0,0,0.077,5.196,6.038,15.82c0,0,3.058,6.113,5.045,17.198c0,0-2.802,18.827,22.064,18.623c0,0-8.151-2.141-14.572-11.006
		c0,0-1.53-0.806-7.645-18.799c0,0-5.604-10.652-4.585-16.972l1.224-14.165c0,0-4.529,4.385-2.347,16.406
		c0,0-3.87-10.904,3.773-21.093l8.559-10.294c0,0,4.994-5.197,9.581-7.234c0,0,5.605-3.364,6.063-7.135l-4.386,1.58
		c0,0-4.316-2.714-8.145-5.925c0,0-0.567,1.726-2.935,1.495c0,0-1.169-0.234-2.419-1.838c0,0,0.669-2.304,2.128-4.685
		L178.927,78.174z"/>
	<path clip-path="url(#SVGID_2_)" fill-rule="evenodd" clip-rule="evenodd" fill="#FFFFFF" d="M196.38,87.523
		c0,0,0.231,7.031,5.592,12.433c0,0,3.325,2.345,2.815,6.93c0,0,2.548-2.852,1.428-4.486c0,0-1.53-1.731-0.305-7.947
		c0,0,1.773-6.029-1.918-9.13l-3.231,3.425L196.38,87.523z"/>
	<path clip-path="url(#SVGID_2_)" fill-rule="evenodd" clip-rule="evenodd" d="M182.896,74.967l-4.4,2.984c0,0-0.969,3.193,0,5.182
		C178.496,83.133,179.753,79.488,182.896,74.967"/>
	<path clip-path="url(#SVGID_2_)" fill-rule="evenodd" clip-rule="evenodd" d="M144.765,88.645c0,0,8.66,5.604,13.856-2.139
		c0,0,0.613-1.63,0-3.67C158.621,82.835,150.061,82.532,144.765,88.645"/>
	<path clip-path="url(#SVGID_2_)" fill="none" stroke="#FFFFFF" stroke-width="0.5" stroke-miterlimit="10" d="M144.765,88.645
		c0,0,8.66,5.604,13.856-2.139c0,0,0.613-1.63,0-3.67C158.621,82.835,150.061,82.532,144.765,88.645z"/>
	<path clip-path="url(#SVGID_2_)" fill-rule="evenodd" clip-rule="evenodd" fill="#FFFFFF" d="M147.336,86.299
		c0,0,0.079,4.391,6.397,3.981c0,0-6.764,0.832-6.952-3.561L147.336,86.299z"/>
	<path clip-path="url(#SVGID_2_)" fill-rule="evenodd" clip-rule="evenodd" fill="#FFFFFF" d="M155.957,83.016
		c0,0,2.179,1.924,1.15,5.305c0,0,1.482-2.983-0.436-5.305H155.957z"/>
	<path clip-path="url(#SVGID_2_)" fill="#FFFFFF" d="M151.082,86.72c0,0,3.158,1.235,2.242-1.986c0,0,4.098-1.222,3.783,3.587
		c0,0-1.322,1.637-3.374,1.96C153.732,90.281,149.598,89.685,151.082,86.72"/>
	<path clip-path="url(#SVGID_2_)" fill="#FFFFFF" d="M164.116,83.016c0,0-11.288-2.779-19.752,6.088c0,0,1.011-4.272,8.501-6.569
		C152.865,82.535,157.789,81.208,164.116,83.016"/>
	<path clip-path="url(#SVGID_2_)" fill="#FFFFFF" d="M172.208,141c0,0,2.221,1.275,2.677,3.517c0,0,3.111,0.806,2.698,3.883
		c0,0,2.916,1.888,1.691,3.697c0,0,2.892,0.39,2.057,4.525c0,0,0.591-2.511,2.724-3.424c0,0,1.248,2.283,0.368,6.778
		c0,0,0.832,0.635,1.322,2.742c0,0,0.244,2.363-1.864,2.871c0,0-1.371-0.258-2.447-1.319l-1.769-4.371
		C179.665,159.899,173.432,144.881,172.208,141"/>
	<path clip-path="url(#SVGID_2_)" fill="none" stroke="#000000" stroke-width="0.2" stroke-miterlimit="10" d="M172.208,141
		c0,0,2.221,1.275,2.677,3.517c0,0,3.111,0.806,2.698,3.883c0,0,2.916,1.888,1.691,3.697c0,0,2.892,0.39,2.057,4.525
		c0,0,0.591-2.511,2.724-3.424c0,0,1.248,2.283,0.368,6.778c0,0,0.832,0.635,1.322,2.742c0,0,0.244,2.363-1.864,2.871
		c0,0-1.371-0.258-2.447-1.319l-1.769-4.371C179.665,159.899,173.432,144.881,172.208,141z"/>
	<path clip-path="url(#SVGID_2_)" fill-rule="evenodd" clip-rule="evenodd" fill="#FFFFFF" d="M185.385,164.74
		c0,0-0.03,2.848,2.799,1.624c0,0,0.762-1.147,0-4.356l-1.3-0.993l-0.994,1.758C185.89,162.772,186.132,164.088,185.385,164.74"/>
	<path clip-path="url(#SVGID_2_)" fill="none" stroke="#000000" stroke-width="0.2" stroke-miterlimit="10" d="M185.385,164.74
		c0,0-0.03,2.848,2.799,1.624c0,0,0.762-1.147,0-4.356l-1.3-0.993l-0.994,1.758C185.89,162.772,186.132,164.088,185.385,164.74z"/>
	<path clip-path="url(#SVGID_2_)" fill-rule="evenodd" clip-rule="evenodd" fill="#FFFFFF" d="M188.107,166.676
		c0,0,0.61,1.526,2.853,0.305l0.407-1.528c0,0-0.509-2.65-0.611-3.059c0,0-0.587-1.375-1.811,1.758l-0.498,0.623
		C188.447,164.774,188.49,165.682,188.107,166.676"/>
	<path clip-path="url(#SVGID_2_)" fill="none" stroke="#000000" stroke-width="0.2" stroke-miterlimit="10" d="M188.107,166.676
		c0,0,0.61,1.526,2.853,0.305l0.407-1.528c0,0-0.509-2.65-0.611-3.059c0,0-0.587-1.375-1.811,1.758l-0.498,0.623
		C188.447,164.774,188.49,165.682,188.107,166.676z"/>
	<path clip-path="url(#SVGID_2_)" fill-rule="evenodd" clip-rule="evenodd" fill="#FFFFFF" d="M190.995,163.543l1.513-2.219
		c0,0,1.789,1.223,1.789,1.76c0,0,0.611,1.526-0.688,3.896c0,0-1.323,0.841-2.649,0l0.408-1.528L190.995,163.543z"/>
	<path clip-path="url(#SVGID_2_)" fill="none" stroke="#000000" stroke-width="0.2" stroke-miterlimit="10" d="M190.995,163.543
		l1.513-2.219c0,0,1.789,1.223,1.789,1.76c0,0,0.611,1.526-0.688,3.896c0,0-1.323,0.841-2.649,0l0.408-1.528L190.995,163.543z"/>
	<path clip-path="url(#SVGID_2_)" fill="#FFFFFF" d="M188.107,172.789c0,0,10.253,1.727,8.549-4.586c0,0,1.059-1.607,0.825-3.177
		l1.399-1.943l0.741,2.473l1.224,3.869c0,0,0.509,5.097-1.936,7.441C198.909,176.866,193.597,177.548,188.107,172.789"/>
	<path clip-path="url(#SVGID_2_)" fill="#FFFFFF" d="M194.951,158.42l-0.51-2.308l-1.942-0.814c0,0,1.15-5.356-3.507-5.856v-1.895
		c0,0,0.917-1.23-2.116-2.852c0,0,1.16-2.904-2.286-4.002c0,0,2.472-4.53-1.354-10.302c0,0-3.179-5.4-8.699-6.861
		c0,0-1.428-0.698-3.627-0.11l0.654-9.196l0.567-1.121l3.101,1.629l0.522,0.408l0.601-6.931l0.985-1.323
		c0,0,5.673,8.153,4.688,12.33l0.439,0.817c0,0,2.345-0.714,4.792-8.561l0.611,0.509l0.622-1.019l2.497,1.733l1.767-1.937
		l1.228-0.815l2.856,2.038l0.926-1.019l0.431,1.53l1.607-1.021c0,0,1.187,0.815,0.995,1.938c0,0-5.287,7.949-6.815,21.297
		c0,0-2.114,9.963,2.396,22.815L194.951,158.42z"/>
	<path clip-path="url(#SVGID_2_)" fill="#FFFFFF" d="M162.189,132.653c0,0-6.661,11.466-15.409,8.646
		c0,0-32.283,1.265-41.152,14.813c0,0-3.667,4.116-5.502,11.129c0,0-2.75,4.973-1.833,10.576c0,0-1.529,14.165,5.807,30.368
		c0,0,3.67-34.854,29.199-33.937c0,0,16.233,19.871,52.523,5.197c0,0-16.441-5.617-13.691-20.274c0,0-0.158-6.781-6.273-19.164
		L162.189,132.653z"/>
	<path clip-path="url(#SVGID_2_)" fill="#FFFFFF" d="M102.879,208.185c0,0-10.771-20.855-4.773-41.204
		c0,0-19.28-32.171-7.048-59.278c0,0,6.115-19.771,28.738-32.205c0,0-41.784-21.399-47.896,0c0,0-5.322,15.465,6.926,26.549
		C78.826,102.046,50.567,126.98,102.879,208.185"/>
	<path clip-path="url(#SVGID_2_)" fill="#FFFFFF" d="M132.623,176.22c0,0-20.812-2.795-27.325,31.964c0,0,18.906-29.898,44.8-22.116
		C150.098,186.067,137.706,182.415,132.623,176.22"/>
	<path clip-path="url(#SVGID_2_)" fill="#FFFFFF" d="M299.608,127.224c-0.647,0-1.49,0.029-2.526,0.08l-1.555,0.116l-1.593,0.038
		h-0.118l-0.118,0.04v78.449h2.218l2.177-0.037v-52.522h6.88l5.753,0.039h1.205c1.244,0,2.735-0.027,4.472-0.077l5.714-0.155
		l0.272-0.04v-3.575h-24.296v-3.538v-14.732l0.506-0.507h27.598v-3.227c-0.077-0.128-0.168-0.246-0.271-0.351H299.608z"/>
	<path clip-path="url(#SVGID_2_)" fill="#FFFFFF" d="M375.024,148.296l-0.037-0.506l-0.041-0.467
		c-0.13-0.906-0.285-1.75-0.465-2.527l-0.233-1.048l-0.312-1.011c-0.26-0.828-0.53-1.62-0.815-2.373
		c-0.387-0.958-0.869-1.918-1.438-2.876l-0.776-1.205l-0.815-1.128c-0.753-1.086-1.414-1.878-1.983-2.371l-0.974-0.854
		c-0.388-0.337-0.725-0.608-1.01-0.816c-1.764-1.27-3.342-2.19-4.742-2.759c-1.089-0.442-2.54-0.882-4.355-1.324l-0.348-0.076
		l-0.313-0.041c-0.288,0-0.491-0.037-0.62-0.115l-0.47-0.118h-0.698c-0.232,0-0.413-0.024-0.544-0.078
		c-0.259-0.128-0.558-0.192-0.895-0.192l-0.855,0.038c-1.53,0.026-2.929,0.091-4.197,0.195l-0.738,0.077
		c-0.262,0.053-0.481,0.104-0.661,0.156l-1.011,0.27l-0.975,0.234c-1.009,0.258-2.033,0.621-3.068,1.088
		c-0.65,0.311-1.466,0.753-2.449,1.322c-1.247,0.752-2.438,1.647-3.578,2.683c-0.829,0.777-1.515,1.518-2.059,2.217
		c-0.391,0.519-0.805,1.113-1.245,1.789l-1.166,1.827c-0.493,0.803-0.935,1.813-1.323,3.032l-0.39,1.166l-0.31,1.165l-0.232,1.167
		c-0.078,0.493-0.169,0.894-0.271,1.205c-0.078,0.157-0.132,0.363-0.157,0.622l-0.077,0.66l-0.193,1.441l-0.039,1.008l-0.117,0.971
		c-0.08,0.547-0.117,1.023-0.117,1.44c0,0.209,0.012,0.401,0.037,0.582v0.661c0,0.104,0.016,0.182,0.041,0.232
		c0.128,0.184,0.195,0.417,0.195,0.701l-0.039,0.352l0.039,0.348l0.193,1.439v0.7c0,0.18,0.038,0.323,0.117,0.426
		c0.076,0.104,0.117,0.286,0.117,0.545l0.115,0.582c0.104,0.132,0.168,0.326,0.195,0.584v0.35l0.039,0.35
		c0.103,0.441,0.207,0.831,0.309,1.167l0.274,0.856l0.271,0.814c0.209,0.649,0.454,1.183,0.739,1.594
		c0.052,0.441,0.233,0.922,0.546,1.439l0.815,1.282c0.284,0.545,0.663,1.116,1.127,1.711l0.66,0.778l0.66,0.777
		c0.777,0.88,1.725,1.748,2.84,2.604c1.374,1.114,2.84,1.996,4.393,2.643c1.867,0.804,3.445,1.308,4.743,1.516l1.672,0.352
		l0.854,0.077c0.361,0,0.648,0.039,0.855,0.115c0.131,0.027,0.286,0.04,0.466,0.04h0.312l0.815-0.04h2.334
		c0.312,0,0.569-0.051,0.779-0.154c0.101-0.052,0.218-0.078,0.348-0.078h0.544c0.258,0,0.467-0.052,0.622-0.156
		c0.441,0,0.958-0.063,1.554-0.192l0.74-0.232l0.738-0.198c2.28-0.695,4.106-1.501,5.481-2.407c1.97-1.347,3.394-2.502,4.278-3.463
		l0.426-0.504l0.39-0.544l0.815-0.97c0.337-0.364,0.583-0.7,0.738-1.013l0.468-0.893l0.544-0.895
		c0.414-0.753,0.724-1.374,0.933-1.866c0.597-1.503,1.075-3.073,1.438-4.704l0.117-0.623c0.026-0.233,0.063-0.426,0.117-0.583
		l0.077-0.349l0.038-0.313c0.027-0.311,0.065-0.529,0.115-0.661c0.078-0.208,0.132-0.479,0.158-0.815v-0.389l0.154-1.207
		c0.026-0.206,0.04-0.399,0.04-0.58v-3.269c0-0.595-0.055-1.087-0.155-1.473C375.065,148.995,375.024,148.685,375.024,148.296
		 M368.379,136.01h0.077v0.236h-0.077V136.01z M337.357,133.911h0.193v0.041h-0.193V133.911z M336.967,133.68h0.193v0.075h-0.193
		V133.68z M329.363,155.827c0.006,0.028,0.006,0.051,0.014,0.078l-0.029-0.029C329.353,155.856,329.358,155.848,329.363,155.827
		 M330.631,161.668l0.039-0.076h0.063c0.016,0.055,0.035,0.121,0.052,0.181l-0.193-0.027L330.631,161.668z M330.942,162.99
		l0.051-0.51c0.048,0.149,0.102,0.306,0.156,0.464C331.084,162.957,331.033,162.96,330.942,162.99 M331.301,163.367
		c0.058,0.156,0.125,0.318,0.192,0.481l-0.318-0.394L331.301,163.367z M361.577,171.659c-1.401,0.83-2.565,1.4-3.501,1.711
		c-0.931,0.311-2.15,0.595-3.651,0.855l-2.412,0.156l-1.205,0.037c-0.467,0-0.869-0.025-1.207-0.076l-1.67-0.272
		c-0.622-0.131-1.165-0.259-1.633-0.39c-1.271-0.414-2.384-0.854-3.342-1.322c-1.246-0.622-2.257-1.32-3.032-2.099l-2.063-2.06
		c-0.905-0.856-1.814-2.177-2.723-3.966c-0.179-0.362-0.4-0.907-0.659-1.634l-0.351-0.855l-0.349-0.814v-0.155
		c0-0.259-0.052-0.571-0.155-0.934l-0.195-0.506l-0.116-0.544l-0.194-1.321l-0.193-1.283c-0.104-0.57-0.156-1.297-0.156-2.178
		l0.04-1.012c0-0.386-0.016-0.698-0.04-0.931v-1.439c0-0.467-0.014-0.855-0.04-1.165v-0.312c0-0.337,0.026-0.701,0.08-1.088
		l0.192-1.4c0.129-0.958,0.362-1.929,0.699-2.915l0.973-2.761c0.543-1.399,1.491-2.941,2.84-4.626
		c0.494-0.617,0.901-1.09,1.232-1.423c0.452-0.396,0.875-0.806,1.385-1.175c0.388-0.302,0.791-0.603,1.23-0.902
		c1.241-0.828,2.346-1.374,3.304-1.631c0.338-0.259,0.866-0.48,1.595-0.662l0.814-0.234c0.312-0.077,0.571-0.179,0.778-0.31h0.119
		l1.515-0.118l2.993-0.116c0.569,0,1.061,0.026,1.478,0.078l0.815,0.078l0.817,0.116c0.645,0.104,1.191,0.235,1.633,0.389
		c0.411,0.156,0.93,0.388,1.553,0.699l1.518,0.74c1.295,0.648,2.489,1.387,3.575,2.217c0.441,0.361,0.974,0.932,1.597,1.711
		l0.932,1.203c0.363,0.467,0.66,0.883,0.894,1.244c0.673,1.088,1.281,2.332,1.827,3.731c0.26,0.674,0.439,1.232,0.542,1.672
		l0.196,0.817c0.053,0.337,0.129,0.607,0.235,0.816c0.05,0.131,0.091,0.31,0.115,0.544l0.079,0.583l0.271,1.906
		c0.104,0.75,0.155,1.747,0.155,2.991v3.152c0,0.309-0.066,0.736-0.193,1.28l-0.04,0.35v0.35c-0.025,0.286-0.066,0.521-0.116,0.7
		c-0.076,0.183-0.117,0.441-0.117,0.778l-0.038,0.428l-0.078,0.427l-0.35,1.204l-0.352,1.168c-0.257,0.933-0.556,1.722-0.894,2.37
		c-0.646,1.323-1.257,2.424-1.826,3.304c-0.207,0.313-0.467,0.637-0.777,0.974l-0.894,0.932
		C363.737,170.093,362.586,171.063,361.577,171.659"/>
	<path clip-path="url(#SVGID_2_)" fill="#FFFFFF" d="M420.395,174.925l-0.545-1.359c-0.31-0.832-0.531-1.464-0.66-1.906
		l-0.312-0.895l-0.352-0.895c-0.284-0.75-0.493-1.345-0.621-1.787l-0.271-0.776l-0.273-0.778l-0.621-1.556l-0.702-2.021
		l-0.776-1.943c-0.648-1.453-1.463-2.683-2.449-3.694l-1.711-1.674l-0.503-0.425l-2.215-1.671v-0.009l0.075-0.186l0.584-0.038
		c0.259-0.027,0.452-0.067,0.582-0.118l0.545-0.196l0.583-0.153c0.466-0.105,0.829-0.232,1.089-0.389l0.505-0.273l0.507-0.233
		c0.465-0.205,0.815-0.374,1.049-0.505c1.296-0.804,2.307-1.632,3.031-2.488c0.856-1.036,1.503-2.072,1.944-3.11
		c0.519-1.242,0.802-2.293,0.854-3.147l0.039-1.206l0.038-1.242c0-0.681-0.056-1.272-0.137-1.827l0.004-0.003
		c0,0-0.176-2.929-0.968-3.421c-0.074-0.168-0.143-0.396-0.22-0.544c-0.466-0.824-0.917-1.518-1.358-2.14l-0.006-0.03l-0.025-0.014
		c-0.634-0.885-1.248-1.584-1.838-2.054c-0.752-0.649-1.696-1.164-2.836-1.554c-0.624-0.233-1.569-0.453-2.84-0.663l-1.631-0.27
		c-0.442-0.052-0.857-0.079-1.246-0.079h-0.35l-0.428-0.039c-0.156-0.101-0.398-0.155-0.737-0.155h-0.389l-0.348-0.038
		c-0.236-0.077-0.496-0.129-0.779-0.157l-18.466-0.032v-0.007h-4.356v49.526h4.356v-22.312c0.257-0.025,0.517-0.038,0.775-0.038
		c0.649,0,1.285,0.05,1.906,0.152c0.284,0.051,0.596,0.079,0.934,0.079h0.35l1.321-0.039h7.931c0.259,0,0.596,0.025,1.009,0.078
		l0.623,0.117h0.777c0.647,0,1.412,0.142,2.295,0.428c1.71,0.544,3.212,1.399,4.509,2.567c1.089,0.983,1.867,1.824,2.333,2.524
		l0.351,0.507l0.35,0.504c0.258,0.389,0.454,0.74,0.582,1.053l0.354,0.995l1.813,5.194l0.03,0.051
		c0.056,0.149,0.127,0.365,0.176,0.482c0.283,0.649,0.583,1.451,0.893,2.409l0.428,1.246l0.428,1.281
		c0.104,0.389,0.271,0.855,0.507,1.399l0.505,1.284h4.586l-0.038-0.39L420.395,174.925z M405.387,130.646l0.389,0.077
		c0.313,0.078,0.56,0.115,0.739,0.115h0.272c0.183,0,0.362,0.014,0.545,0.041l0.778,0.233l0.698,0.194
		c0.286,0.078,0.518,0.18,0.701,0.31c0.128,0.105,0.349,0.21,0.66,0.312l0.35,0.154l0.311,0.158c1.395,0.876,2.443,1.896,3.16,3.055
		l0.081,0.13c0.223,0.376,0.417,0.764,0.569,1.168c0.155,0.442,0.259,0.829,0.311,1.167l0.271,1.399
		c0.104,0.389,0.156,0.854,0.156,1.399c0,0.26-0.014,0.531-0.04,0.815c-0.207,2.411-0.79,4.263-1.748,5.56
		c-1.064,1.401-2.333,2.358-3.81,2.878c-0.994,0.348-2.054,0.641-3.166,0.893h-21.363v-20.059H405.387z"/>
	<path clip-path="url(#SVGID_2_)" fill="#FFFFFF" d="M508.486,176.441l-0.117-0.194c-0.311-0.362-0.677-0.854-1.09-1.478
		l-1.088-1.556l-1.129-1.555c-0.492-0.673-0.881-1.191-1.167-1.557c-0.31-0.359-0.726-0.932-1.241-1.708l-0.584-0.854l-0.62-0.818
		c-0.623-0.803-1.479-1.957-2.568-3.46l-2.178-3.07l-2.953-3.966l-1.669-2.216l-1.674-2.175c-0.131-0.156-0.247-0.353-0.35-0.585
		l-0.234-0.583l1.051-1.516l1.009-1.439l1.051-1.36l1.05-1.398l1.167-1.633l1.165-1.673l1.36-1.75l1.322-1.75l2.41-3.38l1.011-1.32
		l1.01-1.324l0.975-1.399l1.01-1.4l0.66-0.893l0.311-0.467l0.391-0.544h-5.289l-0.35,0.661l-0.427,0.544
		c-0.339,0.44-0.727,0.998-1.166,1.673l-0.584,0.853l-0.545,0.817l-1.281,1.866c-0.339,0.415-0.729,0.961-1.168,1.634l-0.545,0.815
		l-0.582,0.814l-1.322,1.944l-1.358,1.945l-1.011,1.438l-1.011,1.398l-1.323,1.83c-0.519,0.751-0.997,1.335-1.439,1.748
		l-0.271-0.233l-0.195-0.233l-0.66-0.97l-0.659-0.974l-1.633-2.331l-1.634-2.296l-0.349-0.506l-0.313-0.544l-1.789-2.564
		l-2.332-3.303l-1.863-2.724l-2.488-3.461h-4.901v0.35l0.817,1.166l0.778,1.127l2.253,3.072l0.975,1.284l0.97,1.281l1.984,2.799
		l1.438,1.984l1.165,1.593l1.168,1.556l0.738,1.049l0.738,1.013l2.334,3.148l0.738,1.05l0.737,1.05l-0.855,1.051
		c-0.31,0.387-0.556,0.725-0.737,1.01c-0.415,0.648-0.96,1.437-1.634,2.371l-1.671,2.334l-1.438,2.019l-1.168,1.555l-1.126,1.557
		l-0.935,1.283l-0.896,1.282l-1.943,2.604l-0.736,0.933l-0.701,0.972l-0.933,1.359l-1.011,1.323l-1.476,2.061l-0.779,1.129
		l-0.815,1.124h4.818c0.571-0.36,1.09-0.879,1.558-1.552l1.203-1.751l3.032-4.354l1.558-2.216l1.592-2.177l0.855-1.283l0.896-1.283
		l0.933-1.283l0.893-1.359c0.466-0.596,0.998-1.361,1.592-2.293l1.556-2.372l0.312-0.467l0.389-0.428l0.156,0.115l0.117,0.118
		l1.866,2.721l1.866,2.761l1.942,2.76l1.595,2.215l1.593,2.256l1.557,2.177l1.515,2.216c0.597,0.882,1.18,1.684,1.75,2.41
		c0.31,0.39,0.661,0.894,1.05,1.518l1.012,1.552h5.131L508.486,176.441z M497.055,137.098h0.194v0.039h-0.194V137.098z
		 M473.887,133.814l0.063,0.108c-0.042-0.027-0.059-0.062-0.104-0.089C473.863,133.825,473.871,133.823,473.887,133.814"/>
	<path clip-path="url(#SVGID_2_)" fill="#FFFFFF" d="M328.878,110.346c0.132,0.055,0.282,0.083,0.444,0.083
		c0.16,0,0.337-0.028,0.527-0.083l0.486-0.161l0.487-0.082c0-0.214-0.068-0.39-0.205-0.527c-0.109-0.108-0.24-0.201-0.403-0.281
		l-7.724-6.89c-0.296-0.282-0.568-0.527-0.815-0.729l-6.477-5.779l-0.713-0.709l-0.894-0.772l-0.851-0.768l-2.877-2.637
		l-0.121-0.164c-0.379-0.24-0.797-0.564-1.258-0.968l-1.175-1.016l0.87-1.056l0.588-0.687l0.813-0.891
		c0.296-0.324,0.54-0.62,0.728-0.89c0.311-0.454,0.739-0.997,1.174-1.544l2.342-2.842l0.377-0.398
		c0.296-0.326,0.526-0.595,0.688-0.812c0.243-0.349,0.649-0.864,1.217-1.542l0.608-0.727l0.609-0.771
		c0.017-0.025,0.049-0.061,0.068-0.084l0.835-1.02c0.095-0.107,0.17-0.196,0.27-0.315l0.57-0.648l0.605-0.731l1.001-1.274
		l0.858-1.041l0.855-1.008l0.652-0.728l0.606-0.732c0.131-0.203,0.306-0.445,0.496-0.703l7.731-9.389l-0.039-0.246v-0.199
		l-0.123-0.082h-5.999l-1.781,2.229l-0.854,1.133l-0.893,1.137l-0.851,1.094l-0.891,1.095l-0.853,1.135l-0.891,1.053l-0.932,1.136
		l-0.891,1.136l-0.854,1.134l-0.852,1.095l-1.703,2.187l-0.851,1.136l-0.933,1.054c-0.217,0.27-0.513,0.649-0.89,1.135l-0.893,1.135
		l-0.933,1.095c-0.325,0.406-0.608,0.771-0.851,1.094c-0.162,0.27-0.435,0.647-0.812,1.134l-0.851,1.096
		c-0.216,0.325-0.514,0.702-0.893,1.132l-1.824,2.191c-0.352,0.432-0.637,0.812-0.852,1.135l-0.811,1.137l-0.852,1.052l-0.891,1.176
		c-0.379,0.46-0.691,0.838-0.933,1.136l-0.446,0.526L298.555,93c-0.351,0.457-0.702,0.809-1.052,1.052V58.869l-0.325-0.326h-4.175
		l-0.243,0.241v45.707v5.656c0.336-0.382,1.619-2.28,3.823-5.656c0.627-0.96,1.316-2.02,2.095-3.224l1.942-3.036l0.023-0.034
		c0.772-1.171,1.363-2.056,1.765-2.646c0.193-0.305,0.354-0.559,0.52-0.82l1.545-2.341l9.711,8.537
		c1.334,1.264,2.759,2.562,4.315,3.908l0.771,0.688l0.769,0.691c0.677,0.54,1.583,1.363,2.717,2.472
		c0.783,0.782,1.515,1.351,2.189,1.701l0.648-0.041h0.934c0.404,0,0.768-0.052,1.093-0.161c0.108-0.027,0.229-0.038,0.367-0.038
		C328.254,110.147,328.552,110.212,328.878,110.346 M301.218,91.114l-0.013,0.019l-0.015-0.04L301.218,91.114z"/>
	<path clip-path="url(#SVGID_2_)" fill="#FFFFFF" d="M381,107.162l1.057,2.985h4.907l0.121-0.205l0.121-0.243l0.405-1.5l0.406-1.5
		l0.365-1.217l0.322-1.216l0.146-0.799l0.074-0.269l0.227-0.715l0.324-0.972l0.243-1.014c0.215-0.864,0.417-1.527,0.609-1.985
		c-0.028-0.083-0.043-0.162-0.043-0.243c0-0.13,0.058-0.275,0.097-0.411l0.097-0.358l0.134-0.326l0.162-0.445
		c0.107-0.489,0.294-1.11,0.563-1.867l0.203-0.769l0.205-0.771c0.162-0.676,0.31-1.19,0.445-1.542l0.123-0.444l0.079-0.446
		c0.081-0.405,0.163-0.703,0.246-0.892l0.322-0.932l0.242-0.934l0.325-1.254l0.364-1.257l0.405-1.338l0.364-1.379l0.366-1.257
		l0.323-1.254c0.162-0.786,0.324-1.408,0.487-1.867c0.132-0.35,0.284-0.877,0.445-1.581l0.204-0.812l0.283-0.769
		c0.081-0.269,0.161-0.634,0.244-1.095l0.2-1.093l0.327-1.135l0.323-1.136c0.296-1.026,0.539-1.89,0.728-2.593l0.203-0.648
		l0.244-0.65c0.163-0.514,0.242-0.959,0.242-1.338c0.244-0.648,0.527-1.54,0.852-2.675l0.406-1.337l0.404-1.338
		c0.136-0.404,0.203-0.809,0.203-1.216c0-0.189-0.014-0.378-0.041-0.568h-4.458l-0.282,0.608l-0.125,0.812l-0.242,0.769
		c-0.188,0.648-0.284,1.177-0.284,1.58c-0.188,0.461-0.364,1.068-0.524,1.825l-0.245,0.934l-0.201,0.892l-0.325,1.134l-0.243,1.174
		c-0.188,0.919-0.365,1.636-0.527,2.149c-0.218,0.65-0.42,1.393-0.608,2.228L392.518,75l-0.568,2.312l-0.61,2.269l-0.563,2.228
		l-0.935,4.013l-1.418,5.958l-1.136,4.176c-0.135,0.541-0.229,1-0.283,1.378l-0.188,1.099l-0.303,1.231l-0.767,3.063l-0.406,1.688
		l-0.323,1.31l-5.877-15.189l-0.365-0.985l-1.177-3.08l-0.688-1.784l-0.648-1.823l-0.567-1.581l-0.607-1.582
		c-0.217-0.729-0.514-1.525-0.892-2.389l-0.69-1.665l-0.647-1.661l-0.529-1.376l-0.485-1.421l-0.244-0.73l-0.241-0.689
		c-0.161-0.566-0.365-1.027-0.609-1.378c-0.024-0.349-0.147-0.784-0.363-1.296l-0.244-0.61l-0.244-0.648l-0.485-1.297l-0.487-1.295
		l-0.162-0.489l-0.161-0.446c-0.135-0.348-0.298-0.633-0.487-0.851l-0.16,0.162l-0.122,0.163c-0.028,0.215-0.14,0.484-0.215,0.728
		l-16.325,43.373l-0.338-0.97l-0.025-0.489c-0.162-0.376-0.313-0.931-0.445-1.66l-0.163-0.811l-0.202-0.811l-0.082-0.325
		l-0.038-0.364c-0.029-0.27-0.07-0.461-0.123-0.567c-0.11-0.269-0.204-0.621-0.285-1.055l-0.282-1.011
		c-0.083-0.245-0.162-0.61-0.244-1.095l-0.08-0.57l-0.123-0.566l-0.404-1.541l-0.406-1.54l-0.647-2.228l-0.325-1.503l-0.324-1.46
		l-0.527-1.902l-0.484-1.946l-0.49-2.189l-0.443-1.905l-0.526-1.867l-0.285-1.214l-0.283-1.257
		c-0.242-0.757-0.393-1.393-0.446-1.906c-0.055-0.405-0.161-0.932-0.323-1.581l-0.408-1.54l-0.362-1.417l-0.364-1.379l-0.405-1.5
		c-0.165-0.567-0.243-1.067-0.243-1.5c-0.139-0.216-0.243-0.526-0.324-0.93l-0.123-0.489l-0.121-0.526
		c-0.107-0.244-0.202-0.583-0.282-1.015l-0.081-0.526l-0.122-0.527l-0.284-0.851l-0.326-0.811h-4.579v0.285l0.041,0.243
		l10.427,37.435l0.152,0.586l0.487,1.703c0.081,0.273,0.143,0.506,0.205,0.738l0.067,0.245c0.075,0.292,0.132,0.544,0.172,0.762
		l0.244,0.889l0.282,0.892l0.204,0.892l0.244,0.891l0.365,1.258l0.322,1.257l1.056,3.528h4.822l0.162-0.124l0.081-0.122l0.487-1.419
		l0.273-0.802l0.655-1.817l0.407-1.109l0.378-1.076l11.742-32.648l11.896,33.571l0.466,1.491
		C380.698,106.511,380.852,106.814,381,107.162 M343.955,83.918h0.041v0.203h-0.041V83.918z M339.699,63.042l-0.014,0.002
		c-0.026-0.083-0.062-0.19-0.085-0.264l0.099-0.022V63.042z"/>
	<path clip-path="url(#SVGID_2_)" fill="#FFFFFF" d="M428.107,109.941h0.122l0.08-0.041c0.107-0.11,0.242-0.162,0.406-0.162h0.445
		l0.972-0.203l0.649-0.081l0.648-0.08c0.486-0.08,0.892-0.176,1.217-0.283l1.985-0.731l1.945-0.853
		c2.757-1.268,5.081-3.105,6.972-5.511c1.326-1.702,2.324-3.54,2.999-5.511c0.406-1.084,0.73-2.096,0.974-3.041
		c0.108-0.378,0.229-0.904,0.364-1.58l0.285-1.581l0.04-0.488v-0.527c0-0.433,0.041-0.771,0.123-1.014
		c0.079-0.243,0.133-0.567,0.162-0.971l0.039-1.014c0.055-0.514,0.082-1.082,0.082-1.703c0-0.404-0.016-0.838-0.04-1.296
		l-0.206-3.042v-0.121c-0.134-0.133-0.2-0.31-0.2-0.526v-0.609l-0.123-0.649l-0.08-0.649l-0.04-0.443l-0.042-0.448
		c-0.026-0.35-0.081-0.635-0.16-0.85l-0.285-0.893l-0.162-0.893l-0.284-0.89l-0.323-0.852c-0.353-1.055-0.756-2-1.216-2.838
		l-0.69-1.135c-0.243-0.432-0.486-0.796-0.727-1.094c-0.922-1.162-1.665-2.026-2.231-2.595l-0.525-0.403l-0.487-0.406l-1.339-1.096
		c-1.434-0.945-2.957-1.687-4.58-2.228l-0.975-0.364c-0.379-0.136-0.702-0.217-0.971-0.246l-0.528-0.121l-0.485-0.202
		c-0.299-0.107-0.569-0.16-0.811-0.16c-0.109,0-0.204,0.011-0.286,0.038c-0.402-0.188-0.944-0.324-1.619-0.405l-0.812-0.08
		l-0.85-0.121c-0.271-0.055-0.638-0.096-1.097-0.122l-1.094-0.043c-1.459-0.185-2.646-0.282-3.567-0.282h-11.354h-4.088v51.884
		v0.042h4.088v-0.072l1.222-0.01l2.188-0.162l11.349-0.038l1.459-0.084L428.107,109.941z M432.443,62.11l0.081,0.081l-0.04,0.04
		l-0.139-0.138C432.38,62.1,432.412,62.1,432.443,62.11 M432.363,62.069h-0.041l0.034-0.033L432.363,62.069z M432.282,61.665
		l0.07,0.354c-0.073-0.053-0.126-0.102-0.151-0.153l-0.042-0.201H432.282z M410.429,109.037v-0.192l0.087,0.164
		C410.486,109.028,410.457,109.024,410.429,109.037 M410.429,108.087v-0.384c0.189,0.033,0.358,0.134,0.49,0.333L410.429,108.087z
		 M424.418,108.279l-0.202,0.202v-0.202h-0.204v0.202l-0.16-0.121l0.16-0.081v-0.528c0.081,0.081,0.162,0.149,0.243,0.203
		l0.163,0.123l-0.202,0.202H424.418z M410.716,106.416v-43.86l0.125-0.12l0.199-0.163h10.742c0.514,0.133,1.162,0.202,1.946,0.202
		h1.906l0.608,0.081l0.566,0.122l0.608,0.04c0.215,0.028,0.406,0.081,0.567,0.162l0.283,0.04h0.405c0.216,0,0.366,0.055,0.445,0.163
		c1.136,0.055,2.528,0.421,4.176,1.095c0.918,0.352,1.594,0.647,2.028,0.893c0.729,0.378,1.337,0.796,1.822,1.255l0.649,0.527
		l0.606,0.526c1.354,1.353,2.459,3.148,3.325,5.391l0.607,1.297l0.082,0.365l0.081,0.405c0.081,0.3,0.162,0.542,0.243,0.73
		c0.08,0.165,0.148,0.393,0.2,0.69l0.082,0.365l0.122,0.324c0.082,0.189,0.137,0.474,0.163,0.849l0.081,0.855
		c0.108,0.377,0.175,0.836,0.203,1.378v1.418l0.08,0.526l0.121,0.568l0.041,0.446c0.027,0.188,0.081,0.353,0.161,0.487
		c0.054,0.134,0.083,0.298,0.083,0.484c0,0.191-0.029,0.341-0.083,0.447c-0.108,0.163-0.176,0.352-0.202,0.568v0.61l-0.079,1.459
		c-0.028,0.592-0.083,1.079-0.164,1.457l-0.161,1.501l-0.487,2.392c-0.188,0.891-0.391,1.676-0.608,2.351
		c-0.352,0.946-0.933,2.203-1.742,3.77l-0.528,0.852l-0.566,0.85c-0.215,0.326-0.499,0.688-0.85,1.093
		c-0.839,0.947-2.299,1.961-4.378,3.041c-0.353,0.19-0.892,0.406-1.623,0.649l-0.811,0.246l-0.811,0.322h-0.164
		c-0.321,0-0.688,0.054-1.092,0.161l-0.65,0.161l-0.607,0.163l-1.134,0.164l-1.094,0.202H410.716z"/>
	<path clip-path="url(#SVGID_2_)" fill-rule="evenodd" clip-rule="evenodd" fill="#FFFFFF" d="M194.951,161.89
		c0,0-2.173-2.324,0-3.47c0,0,3.474-1.836,5.766-5.121c0,0,1.91,2.838-1.222,8.797c-2.066,3.356-2.014,2.931-2.014,2.931
		l-0.433-2.931l-1.451-1.384L194.951,161.89z"/>
	<path clip-path="url(#SVGID_2_)" fill="none" stroke="#000000" stroke-width="0.2" stroke-miterlimit="10" d="M194.951,161.89
		c0,0-2.173-2.324,0-3.47c0,0,3.474-1.836,5.766-5.121c0,0,1.91,2.838-1.222,8.797c-2.066,3.356-2.014,2.931-2.014,2.931
		l-0.433-2.931l-1.451-1.384L194.951,161.89z"/>
	<path clip-path="url(#SVGID_2_)" fill="#FFFFFF" d="M195.543,167.354l1.113,0.848l2.253,8.663c0,0,6.508-2.719,0-13.687
		l-2.455,3.528L195.543,167.354z"/>
	<path clip-path="url(#SVGID_2_)" fill-rule="evenodd" clip-rule="evenodd" fill="#FFFFFF" d="M178.495,82.835
		c0,0,4.078-11.925,11.108-12.534c0,0,8.05-1.732,13.962,3.465c0,0,3.975,3.974,0.51,11.515v-2.14c0,0,3.26-8.561-5.403-11.108
		c0,0-6.93-2.753-13.146,0.918C185.526,72.951,182.366,74.989,178.495,82.835"/>
	<path clip-path="url(#SVGID_2_)" fill="#FFFFFF" d="M164.081,63.5c0,0-5.319,1.721-11.548,7.153c0,0,4.796,0.399,10.324,0.464
		l1.705,1.704l7.009,0.731l1.626-1.959c1.613,0.297,3.508,0.748,5.69,1.435c0,0,3.384,1.18,4.963,0
		C183.85,73.028,179.185,58.711,164.081,63.5"/>
	<path clip-path="url(#SVGID_2_)" fill="#FFFFFF" d="M183.849,72.899l-6.051,4.342c0,0-3.853-0.799-6.674,0.412
		c0,0-11.686-7.034-22.843-2.377c0,0-10.703,4.906-13.455,15.327c0,0-3.515,9.71-2.14,20.156c0,0,1.529,11.465,12.079,3.465
		c0,0,11.786-7.779,14.131-23.621c0,0,0.51-4.246,2.53-6.008c-1.224,4.202-3.822,16.534-1.682,24.891c0,0,7.403,24.405-7.916,30.213
		c0,0-46.199-2.086-52.923,24.64c0,0-34.856-52.895,24.764-89.669c0,0,15.799-9.26,30.064-5.897c0,0,4.482,2.448,15.181,2.751
		C168.914,71.523,174.631,70.911,183.849,72.899"/>
	<polygon clip-path="url(#SVGID_2_)" fill="#FFFFFF" points="258.159,99.022 249.992,99.022 249.992,35.314 246.667,35.314 
		246.667,99.022 238.499,99.022 238.499,159.496 246.667,159.496 246.667,233.669 249.992,233.669 249.992,159.496 258.159,159.496 
			"/>
	<polygon clip-path="url(#SVGID_2_)" fill-rule="evenodd" clip-rule="evenodd" points="185.119,83.497 191.743,87.931 
		196.828,87.202 200.787,87.931 203.837,85.324 197.467,86.384 192.96,86.244 189.229,84.734 	"/>
	<path clip-path="url(#SVGID_2_)" fill-rule="evenodd" clip-rule="evenodd" fill="#FFFFFF" d="M185.594,82.122l-0.679,0.104
		l-0.632,0.309l-0.562,0.321l-0.659,1.116h0.249c0,0,0.382-0.309,0.538-0.792l1.27,0.222L185.594,82.122z"/>
	<polygon clip-path="url(#SVGID_2_)" fill-rule="evenodd" clip-rule="evenodd" fill="#FFFFFF" points="203.974,83.971 
		203.802,84.394 203.633,85.063 204.075,85.282 204.383,84.153 	"/>
	<path clip-path="url(#SVGID_2_)" fill-rule="evenodd" clip-rule="evenodd" fill="#FFFFFF" d="M194.296,163.083l1.301-2.371
		l1.451,1.383c0,0,0.612,2.745,0.381,3.358c0,0-0.994,2.598-3.821,1.527C193.608,166.98,194.907,164.762,194.296,163.083"/>
	<path clip-path="url(#SVGID_2_)" fill="none" stroke="#000000" stroke-width="0.2" stroke-miterlimit="10" d="M194.296,163.083
		l1.301-2.371l1.451,1.383c0,0,0.612,2.745,0.381,3.358c0,0-0.994,2.598-3.821,1.527
		C193.608,166.98,194.907,164.762,194.296,163.083z"/>
	<path clip-path="url(#SVGID_2_)" fill="#FFFFFF" d="M462.649,173.176h-2.084h-29.519v-20.349v-1.398v-20.435l1.204-0.155h29.467
		v-3.615h-29.973l-1.362,0.118c-0.359,0.035-0.681,0.06-0.982,0.078h-1.699h-0.892v11.468c0,1.502-0.068,2.771-0.197,3.809
		c-0.024,0.337-0.037,0.765-0.037,1.284l0.037,1.322v1.359l-0.037,1.322v0.192c0,0.285,0.037,0.649,0.117,1.091l0.117,1.243v25.97
		v0.503h4.081l16.481-0.036h3.151c1.244,0,2.291-0.039,3.148-0.119c0.854-0.079,1.904-0.115,3.148-0.115l1.555,0.036l4.547,0.04
		v-3.344L462.649,173.176z"/>
	<rect x="427.478" y="149.442" clip-path="url(#SVGID_2_)" fill="#FFFFFF" width="21.141" height="3.712"/>
	<path clip-path="url(#SVGID_2_)" fill-rule="evenodd" clip-rule="evenodd" fill="#FFFFFF" d="M187.531,82.949
		c0,0-1.593,0.843-3.682,0.23l1.592-0.645L187.531,82.949z"/>
</g>
</svg>
